<?xml version="1.0" encoding="UTF-8" standalone="no" ?>
<!DOCTYPE svg PUBLIC "-//W3C//DTD SVG 1.1//EN" "http://www.w3.org/Graphics/SVG/1.1/DTD/svg11.dtd">
<svg xmlns="http://www.w3.org/2000/svg" xmlns:xlink="http://www.w3.org/1999/xlink" version="1.1" width="1080" height="1080" viewBox="0 0 1080 1080" xml:space="preserve">
<desc>Created with Fabric.js 5.2.4</desc>
<defs>
</defs>
<g transform="matrix(1 0 0 1 540 540)" id="91f0f23b-89a4-4639-8017-89782ef281cd"  >
<rect style="stroke: none; stroke-width: 1; stroke-dasharray: none; stroke-linecap: butt; stroke-dashoffset: 0; stroke-linejoin: miter; stroke-miterlimit: 4; fill: rgb(255,255,255); fill-rule: nonzero; opacity: 1; visibility: hidden;" vector-effect="non-scaling-stroke"  x="-540" y="-540" rx="0" ry="0" width="1080" height="1080" />
</g>
<g transform="matrix(1 0 0 1 540 540)" id="d77d1070-1825-463a-b98b-5768b63471e5"  >
</g>
<g transform="matrix(1 0 0 1 540 540)" id="0b3723e8-aea5-4d41-a65b-4f088fa033f3"  >
<path style="stroke: rgb(0,0,0); stroke-width: 0; stroke-dasharray: none; stroke-linecap: butt; stroke-dashoffset: 0; stroke-linejoin: miter; stroke-miterlimit: 4; fill: rgb(208,184,145); fill-rule: nonzero; opacity: 1;" vector-effect="non-scaling-stroke"  transform=" translate(-720, -171.21)" d="M 0 32 L 6.2 53.3 C 12.3 75 25 117 37 128 C 49.2 139 62 117 74 101.3 C 86.2 85 98 75 111 69.3 C 123.1 64 135 64 148 74.7 C 160 85 172 107 185 144 C 196.9 181 209 235 222 213.3 C 233.8 192 246 96 258 53.3 C 270.8 11 283 21 295 32 C 307.7 43 320 53 332 85.3 C 344.6 117 357 171 369 181.3 C 381.5 192 394 160 406 144 C 418.5 128 431 128 443 154.7 C 455.4 181 468 235 480 240 C 492.3 245 505 203 517 160 C 529.2 117 542 75 554 69.3 C 566.2 64 578 96 591 122.7 C 603.1 149 615 171 628 192 C 640 213 652 235 665 234.7 C 676.9 235 689 213 702 202.7 C 713.8 192 726 192 738 181.3 C 750.8 171 763 149 775 149.3 C 787.7 149 800 171 812 170.7 C 824.6 171 837 149 849 128 C 861.5 107 874 85 886 85.3 C 898.5 85 911 107 923 96 C 935.4 85 948 43 960 48 C 972.3 53 985 107 997 106.7 C 1009.2 107 1022 53 1034 53.3 C 1046.2 53 1058 107 1071 154.7 C 1083.1 203 1095 245 1108 272 C 1120 299 1132 309 1145 266.7 C 1156.9 224 1169 128 1182 90.7 C 1193.8 53 1206 75 1218 80 C 1230.8 85 1243 75 1255 69.3 C 1267.7 64 1280 64 1292 96 C 1304.6 128 1317 192 1329 229.3 C 1341.5 267 1354 277 1366 245.3 C 1378.5 213 1391 139 1403 133.3 C 1415.4 128 1428 192 1434 224 L 1440 256 L 1440 320 L 1433.8 320 C 1427.7 320 1415 320 1403 320 C 1390.8 320 1378 320 1366 320 C 1353.8 320 1342 320 1329 320 C 1316.9 320 1305 320 1292 320 C 1280 320 1268 320 1255 320 C 1243.1 320 1231 320 1218 320 C 1206.2 320 1194 320 1182 320 C 1169.2 320 1157 320 1145 320 C 1132.3 320 1120 320 1108 320 C 1095.4 320 1083 320 1071 320 C 1058.5 320 1046 320 1034 320 C 1021.5 320 1009 320 997 320 C 984.6 320 972 320 960 320 C 947.7 320 935 320 923 320 C 910.8 320 898 320 886 320 C 873.8 320 862 320 849 320 C 836.9 320 825 320 812 320 C 800 320 788 320 775 320 C 763.1 320 751 320 738 320 C 726.2 320 714 320 702 320 C 689.2 320 677 320 665 320 C 652.3 320 640 320 628 320 C 615.4 320 603 320 591 320 C 578.5 320 566 320 554 320 C 541.5 320 529 320 517 320 C 504.6 320 492 320 480 320 C 467.7 320 455 320 443 320 C 430.8 320 418 320 406 320 C 393.8 320 382 320 369 320 C 356.9 320 345 320 332 320 C 320 320 308 320 295 320 C 283.1 320 271 320 258 320 C 246.2 320 234 320 222 320 C 209.2 320 197 320 185 320 C 172.3 320 160 320 148 320 C 135.4 320 123 320 111 320 C 98.5 320 86 320 74 320 C 61.5 320 49 320 37 320 C 24.6 320 12 320 6 320 L 0 320 Z" stroke-linecap="round" />
</g>
<g transform="matrix(1 0 0 1 510.41 641.08)" style="" id="e4065df5-ea3a-41a3-9061-1337364b068a"  >
		<text xml:space="preserve" font-family="Alegreya" font-size="18" font-style="normal" font-weight="700" style="stroke: none; stroke-width: 1; stroke-dasharray: none; stroke-linecap: butt; stroke-dashoffset: 0; stroke-linejoin: miter; stroke-miterlimit: 4; fill: rgb(150,64,4); fill-rule: nonzero; opacity: 1; white-space: pre;" ><tspan x="-257.16" y="5.65" >Handcrafted by Tanushree Gangwal with love &amp; endless curiosity. ❤️</tspan></text>
</g>
<g transform="matrix(NaN NaN NaN NaN 0 0)"  >
<g style=""   >
</g>
</g>
<g transform="matrix(NaN NaN NaN NaN 0 0)"  >
<g style=""   >
</g>
</g>
</svg>