<?xml version="1.0" standalone="no"?><svg xmlns="http://www.w3.org/2000/svg" viewBox="0 0 1440 320"><path fill="#d0b891" fill-opacity="1" d="M0,160L6.2,186.7C12.3,213,25,267,37,261.3C49.2,256,62,192,74,144C86.2,96,98,64,111,58.7C123.1,53,135,75,148,112C160,149,172,203,185,202.7C196.9,203,209,149,222,144C233.8,139,246,181,258,192C270.8,203,283,181,295,154.7C307.7,128,320,96,332,112C344.6,128,357,192,369,218.7C381.5,245,394,235,406,208C418.5,181,431,139,443,101.3C455.4,64,468,32,480,26.7C492.3,21,505,43,517,48C529.2,53,542,43,554,74.7C566.2,107,578,181,591,176C603.1,171,615,85,628,74.7C640,64,652,128,665,165.3C676.9,203,689,213,702,186.7C713.8,160,726,96,738,85.3C750.8,75,763,117,775,117.3C787.7,117,800,75,812,69.3C824.6,64,837,96,849,101.3C861.5,107,874,85,886,90.7C898.5,96,911,128,923,133.3C935.4,139,948,117,960,117.3C972.3,117,985,139,997,138.7C1009.2,139,1022,117,1034,128C1046.2,139,1058,181,1071,218.7C1083.1,256,1095,288,1108,282.7C1120,277,1132,235,1145,197.3C1156.9,160,1169,128,1182,133.3C1193.8,139,1206,181,1218,170.7C1230.8,160,1243,96,1255,106.7C1267.7,117,1280,203,1292,197.3C1304.6,192,1317,96,1329,80C1341.5,64,1354,128,1366,133.3C1378.5,139,1391,85,1403,90.7C1415.4,96,1428,160,1434,192L1440,224L1440,0L1433.8,0C1427.7,0,1415,0,1403,0C1390.8,0,1378,0,1366,0C1353.8,0,1342,0,1329,0C1316.9,0,1305,0,1292,0C1280,0,1268,0,1255,0C1243.1,0,1231,0,1218,0C1206.2,0,1194,0,1182,0C1169.2,0,1157,0,1145,0C1132.3,0,1120,0,1108,0C1095.4,0,1083,0,1071,0C1058.5,0,1046,0,1034,0C1021.5,0,1009,0,997,0C984.6,0,972,0,960,0C947.7,0,935,0,923,0C910.8,0,898,0,886,0C873.8,0,862,0,849,0C836.9,0,825,0,812,0C800,0,788,0,775,0C763.1,0,751,0,738,0C726.2,0,714,0,702,0C689.2,0,677,0,665,0C652.3,0,640,0,628,0C615.4,0,603,0,591,0C578.5,0,566,0,554,0C541.5,0,529,0,517,0C504.6,0,492,0,480,0C467.7,0,455,0,443,0C430.8,0,418,0,406,0C393.8,0,382,0,369,0C356.9,0,345,0,332,0C320,0,308,0,295,0C283.1,0,271,0,258,0C246.2,0,234,0,222,0C209.2,0,197,0,185,0C172.3,0,160,0,148,0C135.4,0,123,0,111,0C98.5,0,86,0,74,0C61.5,0,49,0,37,0C24.6,0,12,0,6,0L0,0Z"></path></svg>